<svg xmlns="http://www.w3.org/2000/svg" xmlns:xlink="http://www.w3.org/1999/xlink" width="32" height="32" viewBox="0 0 32 32">
    <defs>
        <linearGradient id="yijimo4lua" x1="50%" x2="50%" y1="0%" y2="100%">
            <stop offset="0%" stop-color="#06D0D2"/>
            <stop offset="100%" stop-color="#03A3A6"/>
        </linearGradient>
        <linearGradient id="t3aqhu3rme" x1="50%" x2="50%" y1="0%" y2="100%">
            <stop offset="0%" stop-color="#1E5381"/>
            <stop offset="100%" stop-color="#0D294A"/>
        </linearGradient>
        <path id="dlb5kvoa4b" d="M0.063 0.016L7.686 0.016 7.686 5.801 0.063 5.801z"/>
        <path id="giexdng7fd" d="M0 29.44L24.64 29.44 24.64 0 0 0z"/>
    </defs>
    <g fill="none" fill-rule="evenodd">
        <g>
            <g>
                <g transform="translate(-36 -1252) translate(36 1252) translate(3.2 1.6)">
                    <path fill="#FED427" d="M19.066 1.78c2.312 2.375 2.312 6.225 0 8.6-2.312 2.374-6.06 2.374-8.372 0-2.312-2.375-2.312-6.225 0-8.599 2.312-2.374 6.06-2.375 8.372 0"/>
                    <path fill="#EDA91F" d="M14.881 1.994c-1.134 0-2.201.442-3.003 1.244-.802.801-1.244 1.867-1.244 3.002 0 1.134.442 2.2 1.244 3.002.802.802 1.868 1.244 3.002 1.244 1.135 0 2.202-.442 3.004-1.244 1.655-1.655 1.655-4.349 0-6.004-.802-.803-1.868-1.244-3.003-1.244m0 9.206c-1.326 0-2.572-.516-3.509-1.453-.936-.936-1.452-2.182-1.452-3.507 0-1.325.516-2.57 1.452-3.507.938-.937 2.184-1.453 3.51-1.453 1.324 0 2.57.516 3.507 1.452 1.935 1.935 1.935 5.082 0 7.015-.937.937-2.183 1.453-3.509 1.453"/>
                    <path fill="#FDE165" d="M14.879 2.075c-1.027 0-1.994.4-2.72 1.126-1.5 1.5-1.5 3.939 0 5.438.727.726 1.693 1.126 2.72 1.126 1.027 0 1.993-.4 2.72-1.126.726-.726 1.126-1.691 1.126-2.719 0-1.027-.4-1.993-1.127-2.72-.726-.725-1.692-1.125-2.719-1.125m0 8.165c-1.154 0-2.24-.45-3.056-1.266-1.684-1.684-1.684-4.424 0-6.108C12.64 2.05 13.725 1.6 14.88 1.6c1.154 0 2.24.45 3.055 1.265.816.816 1.266 1.902 1.266 3.055 0 1.154-.45 2.24-1.266 3.055-.816.816-1.9 1.265-3.055 1.265"/>
                    <path fill="#FED427" d="M9.888 3.918c1.75 1.813 1.75 4.75 0 6.563-1.75 1.812-4.586 1.812-6.336 0s-1.749-4.75 0-6.562c1.75-1.811 4.586-1.812 6.336 0"/>
                    <path fill="#EDA91F" d="M6.88 4.05c-.841 0-1.632.328-2.228.923-.594.595-.922 1.385-.922 2.227 0 .842.328 1.633.922 2.228.595.594 1.386.922 2.228.922.841 0 1.632-.328 2.228-.922.594-.595.922-1.386.922-2.228 0-.842-.328-1.633-.922-2.228-.595-.594-1.386-.922-2.227-.922m-.001 6.83c-.984 0-1.907-.383-2.602-1.078C3.583 9.107 3.2 8.182 3.2 7.2c0-.983.383-1.907 1.078-2.602.695-.695 1.62-1.078 2.603-1.078.983 0 1.906.383 2.601 1.078.695.694 1.078 1.619 1.078 2.602 0 .983-.383 1.907-1.078 2.602-.695.695-1.619 1.078-2.602 1.078"/>
                    <path fill="#FDE165" d="M7.04 4.512c-.762 0-1.477.296-2.016.834-1.11 1.11-1.11 2.917 0 4.028.539.538 1.254.834 2.016.834.76 0 1.475-.296 2.013-.834.539-.538.835-1.253.835-2.014 0-.76-.296-1.476-.835-2.014-.538-.538-1.253-.834-2.014-.834m0 6.048c-.854 0-1.658-.333-2.263-.937-1.248-1.248-1.248-3.278 0-4.526.605-.604 1.408-.937 2.263-.937s1.659.333 2.263.937c.605.605.938 1.408.938 2.263s-.333 1.658-.938 2.263c-.604.604-1.408.937-2.262.937"/>
                    <path fill="url(#yijimo4lua)" d="M0 7.36h21.282c.97 0 1.758.807 1.758 1.803v14.634c0 .995-.787 1.803-1.758 1.803H0V7.36z"/>
                    <path fill="#0D294A" d="M23.04 12.197c-.114-.015-.224-.037-.341-.037h-4.095c-1.612 0-2.924 1.378-2.924 3.07v2.18c0 1.693 1.312 3.07 2.924 3.07H22.7c.117 0 .227-.022.341-.036v-8.247z"/>
                    <g transform="translate(16.96 13.12)">
                        <mask id="m7mtgc6pic" fill="#fff">
                            <use xlink:href="#dlb5kvoa4b"/>
                        </mask>
                        <path fill="#0D294A" d="M7.686 3.984C7.686 4.987 6.9 5.8 5.927 5.8H1.822C.85 5.8.063 4.987.063 3.984V1.832C.063.83.85.016 1.822.016h4.105c.972 0 1.76.813 1.76 1.816v2.152z" mask="url(#m7mtgc6pic)"/>
                    </g>
                    <path fill="#FED427" d="M19.36 17.28c-.618 0-1.12-.502-1.12-1.12 0-.619.502-1.12 1.12-1.12.619 0 1.12.501 1.12 1.12 0 .618-.501 1.12-1.12 1.12z"/>
                    <mask id="f2njdik63f" fill="#fff">
                        <use xlink:href="#giexdng7fd"/>
                    </mask>
                    <path fill="url(#t3aqhu3rme)" d="M1.92 25.6L2.88 25.6 2.88 7.36 1.92 7.36z" mask="url(#f2njdik63f)"/>
                    <path fill="#FED427" d="M10.387 27.667c-1.937 1.937-5.077 1.937-7.014 0-1.938-1.937-1.937-5.077 0-7.014 1.937-1.937 5.077-1.937 7.014 0 1.937 1.937 1.937 5.077 0 7.014z" mask="url(#f2njdik63f)"/>
                    <path fill="#EDA91F" d="M7.041 20.462c-.951 0-1.846.385-2.52 1.084-.672.697-1.042 1.626-1.042 2.614s.37 1.916 1.043 2.615c.672.698 1.567 1.083 2.518 1.083.951 0 1.846-.385 2.519-1.083.672-.699 1.042-1.628 1.042-2.616 0-.987-.37-1.916-1.042-2.615-.673-.698-1.567-1.082-2.518-1.082m0 8.018c-1.112 0-2.157-.45-2.943-1.266-.785-.815-1.218-1.9-1.218-3.054 0-1.155.433-2.24 1.218-3.055.786-.816 1.832-1.265 2.943-1.265s2.156.45 2.94 1.265c.787.815 1.219 1.9 1.219 3.054 0 1.155-.432 2.24-1.218 3.055-.786.816-1.83 1.266-2.942 1.266" mask="url(#f2njdik63f)"/>
                    <path fill="#FDE165" d="M7.2 20.884c-.875 0-1.698.34-2.317.96-1.278 1.277-1.278 3.355 0 4.632.62.619 1.443.96 2.318.96s1.698-.341 2.316-.96c1.278-1.276 1.278-3.355 0-4.632-.618-.62-1.441-.96-2.317-.96m0 6.956c-.983 0-1.908-.383-2.603-1.078-1.436-1.434-1.436-3.77 0-5.205.695-.695 1.62-1.077 2.603-1.077.984 0 1.909.382 2.604 1.077 1.435 1.436 1.435 3.77 0 5.205-.695.695-1.62 1.078-2.603 1.078" mask="url(#f2njdik63f)"/>
                </g>
                <path fill="url(#t3aqhu3rme)" d="M5.12 27.2L6.08 27.2 6.08 8.96 5.12 8.96z" transform="translate(-36 -1252) translate(36 1252)"/>
                <path fill="#FED427" d="M13.587 29.267c-1.937 1.937-5.077 1.937-7.014 0-1.938-1.937-1.937-5.077 0-7.014 1.937-1.937 5.077-1.937 7.014 0 1.937 1.937 1.937 5.077 0 7.014z" transform="translate(-36 -1252) translate(36 1252)"/>
                <path fill="#EDA91F" d="M10.241 22.062c-.951 0-1.846.385-2.52 1.084-.672.697-1.042 1.626-1.042 2.614s.37 1.916 1.043 2.615c.672.698 1.567 1.083 2.518 1.083.951 0 1.846-.385 2.519-1.083.672-.699 1.042-1.628 1.042-2.616 0-.987-.37-1.916-1.042-2.615-.673-.698-1.567-1.082-2.518-1.082m0 8.018c-1.112 0-2.157-.45-2.943-1.266-.785-.815-1.218-1.9-1.218-3.054 0-1.155.433-2.24 1.218-3.055.786-.816 1.832-1.265 2.943-1.265s2.156.45 2.94 1.265c.787.815 1.219 1.9 1.219 3.054 0 1.155-.432 2.24-1.218 3.055-.786.816-1.83 1.266-2.942 1.266" transform="translate(-36 -1252) translate(36 1252)"/>
                <path fill="#FDE165" d="M10.4 22.484c-.875 0-1.698.34-2.317.96-1.278 1.277-1.278 3.355 0 4.632.62.619 1.443.96 2.318.96s1.698-.341 2.316-.96c1.278-1.276 1.278-3.355 0-4.632-.618-.62-1.441-.96-2.317-.96m0 6.956c-.983 0-1.908-.383-2.603-1.078-1.436-1.434-1.436-3.77 0-5.205.695-.695 1.62-1.077 2.603-1.077.984 0 1.909.382 2.604 1.077 1.435 1.436 1.435 3.77 0 5.205-.695.695-1.62 1.078-2.603 1.078" transform="translate(-36 -1252) translate(36 1252)"/>
            </g>
        </g>
    </g>
</svg>
