<svg xmlns="http://www.w3.org/2000/svg" xmlns:xlink="http://www.w3.org/1999/xlink" width="32" height="32" viewBox="0 0 32 32">
    <defs>
        <linearGradient id="lnmfexzdab" x1="50%" x2="50%" y1="0%" y2="100%">
            <stop offset="0%" stop-color="#06D0D2"/>
            <stop offset="100%" stop-color="#03A3A6"/>
        </linearGradient>
        <linearGradient id="fod7mh6t8d" x1="50%" x2="50%" y1="0%" y2="100%">
            <stop offset="0%" stop-color="#1E5381"/>
            <stop offset="100%" stop-color="#0D294A"/>
        </linearGradient>
        <linearGradient id="f5a7vkzt6f" x1="50%" x2="50%" y1="0%" y2="100%">
            <stop offset="0%" stop-color="#06D0D2"/>
            <stop offset="100%" stop-color="#03A3A6"/>
        </linearGradient>
        <linearGradient id="itmmnnlwfi" x1="50%" x2="50%" y1="0%" y2="100%">
            <stop offset="0%" stop-color="#1E5381"/>
            <stop offset="100%" stop-color="#0D294A"/>
        </linearGradient>
        <linearGradient id="soqyre8y5k" x1="50%" x2="50%" y1="0%" y2="100%">
            <stop offset="0%" stop-color="#06D0D2"/>
            <stop offset="100%" stop-color="#03A3A6"/>
        </linearGradient>
        <path id="s7d4uzlpha" d="M0 0.069L12.109 0.069 12.109 12.713 0 12.713z"/>
        <path id="4cldo2ap1e" d="M0.265 0.069L12.518 0.069 12.518 12.713 0.265 12.713z"/>
        <path id="a417zfjr4h" d="M0.097 0.242L19.697 0.242 19.697 20.12 0.097 20.12z"/>
    </defs>
    <g fill="none" fill-rule="evenodd">
        <g>
            <g>
                <g transform="translate(-36 -915) translate(36 915) translate(5.867 16.533)">
                    <mask id="o20q2y5ktc" fill="#fff">
                        <use xlink:href="#s7d4uzlpha"/>
                    </mask>
                    <path fill="url(#lnmfexzdab)" d="M7.348 12.286c-.225.378-.78.577-1.12.29-.364-.301-.825-.881-1.292-1.412-.385-.438-.775-.844-1.117-1.034-.342-.19-.9-.314-1.486-.416-.71-.124-1.46-.219-1.913-.371-.428-.142-.529-.706-.303-1.084L4.769.465c.225-.378.732-.508 1.123-.29l5.807 3.234c.391.218.526.705.301 1.083l-4.652 7.794z" mask="url(#o20q2y5ktc)"/>
                </g>
                <path fill="url(#fod7mh6t8d)" d="M16.533 18.522L11.57 27.2c-.37-.44-.746-.847-1.074-1.038-.328-.19-.866-.314-1.43-.417l4.964-8.678 2.503 1.455z" transform="translate(-36 -915) translate(36 915)"/>
                <g transform="translate(-36 -915) translate(36 915) translate(13.333 16.533)">
                    <mask id="hxun9msl4g" fill="#fff">
                        <use xlink:href="#4cldo2ap1e"/>
                    </mask>
                    <path fill="url(#f5a7vkzt6f)" d="M5.082 12.286c.228.378.79.577 1.134.29.368-.301.834-.881 1.307-1.412.39-.438.785-.844 1.13-1.034.346-.19.911-.314 1.504-.416.718-.124 1.478-.219 1.936-.371.433-.142.535-.706.307-1.084L7.692.465c-.228-.378-.74-.508-1.136-.29L.68 3.41c-.396.218-.533.705-.305 1.083l4.707 7.794z" mask="url(#hxun9msl4g)"/>
                </g>
                <path fill="url(#fod7mh6t8d)" d="M15.467 18.522L20.43 27.2c.37-.44.746-.847 1.074-1.038.328-.19.866-.314 1.43-.417l-4.964-8.678-2.503 1.455z" transform="translate(-36 -915) translate(36 915)"/>
                <g transform="translate(-36 -915) translate(36 915) translate(5.867 2.667)">
                    <mask id="i9znuu3b1j" fill="#fff">
                        <use xlink:href="#a417zfjr4h"/>
                    </mask>
                    <path fill="url(#itmmnnlwfi)" d="M13.972 2.166c1.274-.954 3.04.295 2.502 1.768-.38 1.038.431 2.124 1.563 2.093 1.607-.043 2.282 1.977.956 2.861-.934.623-.934 1.964 0 2.587 1.326.883.651 2.904-.956 2.86-1.132-.03-1.942 1.055-1.563 2.093.539 1.473-1.228 2.722-2.502 1.769-.897-.673-2.209-.258-2.529.799-.454 1.5-2.638 1.5-3.092 0-.32-1.057-1.632-1.472-2.53-.8-1.274.954-3.04-.295-2.501-1.768.38-1.038-.43-2.123-1.563-2.093C.15 14.38-.525 12.358.8 11.475c.934-.623.934-1.964 0-2.587-1.326-.884-.651-2.904.956-2.861 1.132.03 1.942-1.055 1.563-2.093-.54-1.473 1.227-2.722 2.502-1.768.897.672 2.209.258 2.529-.8.454-1.499 2.638-1.499 3.092 0 .32 1.058 1.632 1.472 2.53.8z" mask="url(#i9znuu3b1j)"/>
                </g>
                <path fill="url(#soqyre8y5k)" d="M23.467 13.6c0 3.976-3.343 7.2-7.467 7.2s-7.467-3.224-7.467-7.2S11.876 6.4 16 6.4s7.467 3.224 7.467 7.2" transform="translate(-36 -915) translate(36 915)"/>
                <path fill="#F4990E" d="M21.333 13.067c0 3.091-2.506 5.6-5.6 5.6-2.287 0-4.253-1.37-5.122-3.334-.308-.69-.478-1.46-.478-2.266 0-3.095 2.506-5.6 5.6-5.6 1.49 0 2.845.58 3.848 1.531 1.079 1.018 1.752 2.465 1.752 4.069" transform="translate(-36 -915) translate(36 915)"/>
                <path fill="#FFD833" d="M21.333 13.067c0 2.797-2.386 5.066-5.333 5.066-2.178 0-4.05-1.239-4.878-3.015-.293-.626-.455-1.321-.455-2.051C10.667 10.267 13.053 8 16 8c1.42 0 2.71.526 3.664 1.386 1.028.92 1.67 2.23 1.67 3.68" transform="translate(-36 -915) translate(36 915)"/>
                <path fill="#FFE266" d="M20.267 11.449c0 2.807-2.424 5.084-5.417 5.084-1.44 0-2.749-.527-3.721-1.39-.298-.628-.462-1.326-.462-2.058 0-2.81 2.423-5.085 5.416-5.085 1.442 0 2.752.528 3.721 1.39.299.63.463 1.326.463 2.059" transform="translate(-36 -915) translate(36 915)"/>
                <path fill="#FFF" d="M14.94 9.6c-.16 0-.318-.056-.424-.162-.184-.186-.144-.454.089-.6.573-.357 1.356-.305 1.445-.298.296.025.511.234.48.468-.03.234-.291.401-.588.381-.112-.008-.474-.003-.67.12-.099.061-.216.091-.333.091M11.656 12.267c-.023 0-.046-.002-.07-.006-.247-.037-.417-.262-.381-.506.004-.032.123-.791.781-1.579.628-.749 1.158-1.03 1.217-1.06.223-.113.498-.026.613.194.115.219.028.488-.194.602-.013.007-.43.235-.933.835-.488.584-.583 1.135-.584 1.14-.036.221-.23.38-.45.38" transform="translate(-36 -915) translate(36 915)"/>
            </g>
        </g>
    </g>
</svg>
